<svg xmlns="http://www.w3.org/2000/svg" width="1000" height="618" viewBox="0 0 1000 618" role="img" aria-labelledby="title">
  <title id="title">Franco Tillard, Desarrollador FullStack</title>
  <style>
    text { white-space: pre; }
    .field text { font-family: ui-monospace, 'SFMono-Regular', 'Cascadia Code', 'JetBrains Mono', Consolas, 'Liberation Mono', monospace; font-size: 15px; fill: #575D6A; }
    .field .a1 { fill-opacity: 0.28; }
    .field .a2 { fill-opacity: 0.45; }
    .field .a3 { fill-opacity: 0.65; }
    .field .b { fill: #394EEF; fill-opacity: 0.85; }
    .n { font-family: ui-monospace, 'SFMono-Regular', 'Cascadia Code', 'JetBrains Mono', Consolas, 'Liberation Mono', monospace; font-size: 12px; fill: #575D6A; fill-opacity: 0.7; }
    .tilde { font-family: ui-monospace, 'SFMono-Regular', 'Cascadia Code', 'JetBrains Mono', Consolas, 'Liberation Mono', monospace; font-size: 13px; fill: #394EEF; fill-opacity: 0.55; }
    .field { animation: show 1.4s ease-out 0.1s both; }
    .blade { animation: sway 5s ease-in-out infinite alternate; transform-box: fill-box; transform-origin: 50% 100%; }
    .show { animation: show 0.18s ease-out both; }
    .scramble { opacity: 0; animation: flash 0.07s linear; }
    .glitch { opacity: 0; animation: glitch 7s linear infinite; }
    .glitch-hide { animation: glitch-hide 7s linear infinite; }
    @keyframes show { from { opacity: 0; } to { opacity: 1; } }
    @keyframes sway { from { transform: skewX(-3deg); } to { transform: skewX(3deg); } }
    @keyframes flash { from, to { opacity: 1; } }
    @keyframes glitch { 0%, 95.9% { opacity: 0; } 96%, 98% { opacity: 1; } 98.1%, 100% { opacity: 0; } }
    @keyframes glitch-hide { 0%, 95.9% { opacity: 1; } 96%, 98% { opacity: 0; } 98.1%, 100% { opacity: 1; } }
    @media (prefers-reduced-motion: reduce) {
      .field, .blade, .show, .scramble, .glitch, .glitch-hide { animation: none; }
    }
  </style>
  <rect x="0.5" y="0.5" width="999" height="617" rx="12" fill="#FCFCFC" stroke="#D5D8DD"/>
  <rect x="0.5" y="40" width="196" height="548" fill="#F3F3F1"/>
  <line x1="196.5" y1="40" x2="196.5" y2="588" stroke="#D5D8DD"/>
  <text x="16" y="70" font-family="ui-monospace, 'SFMono-Regular', 'Cascadia Code', 'JetBrains Mono', Consolas, 'Liberation Mono', monospace" font-size="13" font-weight="700" fill="#1B2231">▾ franco-tillard/</text><text x="16" y="94" font-family="ui-monospace, 'SFMono-Regular', 'Cascadia Code', 'JetBrains Mono', Consolas, 'Liberation Mono', monospace" font-size="13" font-weight="400" fill="#1B2231">  ▸ sobre-mi/</text><text x="16" y="118" font-family="ui-monospace, 'SFMono-Regular', 'Cascadia Code', 'JetBrains Mono', Consolas, 'Liberation Mono', monospace" font-size="13" font-weight="400" fill="#1B2231">  ▸ stack/</text><text x="16" y="142" font-family="ui-monospace, 'SFMono-Regular', 'Cascadia Code', 'JetBrains Mono', Consolas, 'Liberation Mono', monospace" font-size="13" font-weight="400" fill="#1B2231">  ▸ proyectos/</text><text x="16" y="166" font-family="ui-monospace, 'SFMono-Regular', 'Cascadia Code', 'JetBrains Mono', Consolas, 'Liberation Mono', monospace" font-size="13" font-weight="400" fill="#575D6A">    README.md</text><rect x="0.5" y="174" width="195" height="23" fill="#394EEF"/><text x="16" y="190" font-family="ui-monospace, 'SFMono-Regular', 'Cascadia Code', 'JetBrains Mono', Consolas, 'Liberation Mono', monospace" font-size="13" font-weight="400" fill="#FFFFFF">    README.es.md</text>
  <path d="M0.5 12.5 A12 12 0 0 1 12.5 0.5 H987.5 A12 12 0 0 1 999.5 12.5 V40 H0.5 Z" fill="#F3F3F1"/>
  <line x1="0.5" y1="40" x2="999.5" y2="40" stroke="#D5D8DD"/>
  <circle cx="24" cy="20" r="6" fill="#D5D8DD"/><circle cx="44" cy="20" r="6" fill="#D5D8DD"/><circle cx="64" cy="20" r="6" fill="#D5D8DD"/>
  <text x="500" y="25" text-anchor="middle" font-family="ui-monospace, 'SFMono-Regular', 'Cascadia Code', 'JetBrains Mono', Consolas, 'Liberation Mono', monospace" font-size="13" fill="#575D6A">nvim ~/franco-tillard/README.es.md</text>
  <text x="234" y="68" text-anchor="end" class="n">1</text><text x="234" y="90" text-anchor="end" class="n">2</text><text x="234" y="112" text-anchor="end" class="n">3</text><text x="234" y="134" text-anchor="end" class="n">4</text><text x="234" y="156" text-anchor="end" class="n">5</text><text x="234" y="178" text-anchor="end" class="n">6</text><text x="234" y="200" text-anchor="end" class="n">7</text><text x="234" y="222" text-anchor="end" class="n">8</text><text x="234" y="244" text-anchor="end" class="n">9</text><text x="234" y="266" text-anchor="end" class="n">10</text><text x="234" y="288" text-anchor="end" class="n">11</text><text x="234" y="310" text-anchor="end" class="n">12</text><text x="234" y="332" text-anchor="end" class="n">13</text><text x="234" y="354" text-anchor="end" class="n">14</text><text x="234" y="376" text-anchor="end" class="n">15</text><text x="234" y="398" text-anchor="end" class="n">16</text><text x="234" y="420" text-anchor="end" class="n">17</text><text x="234" y="442" text-anchor="end" class="n">18</text><text x="234" y="464" text-anchor="end" class="n">19</text><text x="234" y="486" text-anchor="end" class="n">20</text><text x="234" y="508" text-anchor="end" class="n">21</text>
  <text x="234" y="530" text-anchor="end" class="tilde">~</text><text x="234" y="552" text-anchor="end" class="tilde">~</text><text x="234" y="574" text-anchor="end" class="tilde">~</text>
  <g class="field">
  <g class="blade" style="animation-delay:0.00s"><text x="254" y="508" class="a1">/</text><text x="254" y="90" class="a1">|</text><text x="254" y="112" class="a1">|</text></g>
  <g class="blade" style="animation-delay:-0.07s"><text x="263" y="288" class="a1">|</text><text x="263" y="442" class="a1">|</text></g>
  <g class="blade" style="animation-delay:-0.14s"><text x="272" y="332" class="a1">/</text><text x="272" y="420" class="a1">/</text><text x="272" y="486" class="a1">|</text><text x="272" y="90" class="a1">|</text><text x="272" y="112" class="a1">|</text><text x="272" y="134" class="a1">|</text></g>
  <g class="blade" style="animation-delay:-0.21s"><text x="281" y="222" class="a1">/</text><text x="281" y="398" class="a1">/</text><text x="281" y="420" class="a1">/</text><text x="281" y="442" class="a1">/</text></g>
  <g class="blade" style="animation-delay:-0.28s"><text x="290" y="266" class="a1">|</text><text x="290" y="486" class="a1">/</text></g>
  <g class="blade" style="animation-delay:-0.35s"><text x="299" y="376" class="a1">|</text><text x="299" y="442" class="a1">/</text><text x="299" y="486" class="a1">/</text><text x="299" y="178" class="a1">|</text><text x="299" y="200" class="a1">|</text><text x="299" y="222" class="a1">|</text><text x="299" y="244" class="a1">|</text></g>
  <g class="blade" style="animation-delay:-0.42s"><text x="308" y="288" class="a1">\</text><text x="308" y="310" class="a1">\</text><text x="308" y="332" class="b">|</text><text x="308" y="354" class="a1">/</text><text x="308" y="376" class="a1">|</text><text x="308" y="398" class="a1">/</text><text x="308" y="442" class="a2">|</text><text x="308" y="508" class="a1">/</text></g>
  <g class="blade" style="animation-delay:-0.49s"><text x="317" y="354" class="a1">/</text><text x="317" y="376" class="a1">|</text><text x="317" y="464" class="a2">/</text></g>
  <g class="blade" style="animation-delay:-0.56s"><text x="326" y="376" class="a1">/</text><text x="326" y="398" class="a2">\</text><text x="326" y="486" class="a2">|</text></g>
  <g class="blade" style="animation-delay:-0.63s"><text x="335" y="442" class="a2">/</text><text x="335" y="508" class="a2">\</text></g>
  <g class="blade" style="animation-delay:-0.70s"><text x="344" y="354" class="a1">|</text></g>
  <g class="blade" style="animation-delay:-0.77s"><text x="353" y="332" class="a1">|</text><text x="353" y="376" class="a2">|</text><text x="353" y="420" class="a2">\</text><text x="353" y="442" class="a2">\</text><text x="353" y="486" class="a2">/</text></g>
  <g class="blade" style="animation-delay:-0.84s"><text x="362" y="354" class="a2">\</text><text x="362" y="486" class="a2">\</text><text x="362" y="508" class="a2">/</text></g>
  <g class="blade" style="animation-delay:-0.91s"><text x="371" y="376" class="a2">|</text><text x="371" y="420" class="a2">|</text><text x="371" y="464" class="a2">|</text></g>
  <g class="blade" style="animation-delay:-0.98s"><text x="380" y="376" class="a2">|</text><text x="380" y="398" class="b">/</text><text x="380" y="420" class="a2">|</text><text x="380" y="442" class="a2">|</text><text x="380" y="464" class="a2">|</text></g>
  <g class="blade" style="animation-delay:-1.05s"><text x="389" y="68" class="a1">|</text><text x="389" y="266" class="a1">|</text><text x="389" y="398" class="a2">\</text><text x="389" y="464" class="a2">\</text><text x="389" y="486" class="a2">|</text></g>
  <g class="blade" style="animation-delay:-1.12s"><text x="398" y="376" class="a2">\</text><text x="398" y="398" class="a2">\</text><text x="398" y="420" class="a2">\</text><text x="398" y="464" class="a2">|</text><text x="398" y="112" class="a1">|</text><text x="398" y="134" class="a1">|</text></g>
  <g class="blade" style="animation-delay:-1.19s"><text x="407" y="398" class="a2">/</text><text x="407" y="442" class="a3">|</text></g>
  <g class="blade" style="animation-delay:-1.26s"><text x="416" y="398" class="a2">|</text><text x="416" y="442" class="a3">/</text><text x="416" y="464" class="a3">\</text><text x="416" y="508" class="b">\</text></g>
  <g class="blade" style="animation-delay:-1.33s"><text x="425" y="398" class="a2">\</text><text x="425" y="420" class="a3">\</text><text x="425" y="442" class="a3">\</text></g>
  <g class="blade" style="animation-delay:-1.40s"><text x="434" y="398" class="a3">|</text><text x="434" y="420" class="a3">\</text><text x="434" y="486" class="a3">/</text></g>
  <g class="blade" style="animation-delay:-1.47s"><text x="443" y="398" class="a3">\</text><text x="443" y="442" class="a3">|</text><text x="443" y="464" class="a3">|</text><text x="443" y="486" class="a3">|</text><text x="443" y="508" class="a2">|</text></g>
  <g class="blade" style="animation-delay:-1.54s"><text x="452" y="398" class="a3">\</text><text x="452" y="442" class="a3">|</text><text x="452" y="464" class="a3">/</text><text x="452" y="486" class="a3">|</text><text x="452" y="178" class="a1">|</text><text x="452" y="200" class="a1">|</text><text x="452" y="222" class="a1">|</text></g>
  <g class="blade" style="animation-delay:-1.68s"><text x="470" y="398" class="a3">|</text><text x="470" y="420" class="a3">|</text><text x="470" y="486" class="a3">/</text></g>
  <g class="blade" style="animation-delay:-1.75s"><text x="479" y="398" class="a3">/</text><text x="479" y="442" class="a3">|</text><text x="479" y="486" class="a3">|</text><text x="479" y="508" class="a3">\</text></g>
  <g class="blade" style="animation-delay:-1.82s"><text x="488" y="398" class="a3">|</text><text x="488" y="420" class="b">/</text><text x="488" y="442" class="a3">\</text><text x="488" y="464" class="b">|</text><text x="488" y="486" class="a3">\</text></g>
  <g class="blade" style="animation-delay:-1.89s"><text x="497" y="398" class="a3">|</text><text x="497" y="420" class="a3">|</text><text x="497" y="442" class="a3">\</text><text x="497" y="464" class="a3">\</text><text x="497" y="508" class="a3">/</text></g>
  <g class="blade" style="animation-delay:-1.96s"><text x="506" y="398" class="a3">|</text><text x="506" y="420" class="a3">/</text><text x="506" y="442" class="a3">/</text><text x="506" y="464" class="a3">|</text><text x="506" y="486" class="a3">|</text><text x="506" y="508" class="a3">/</text></g>
  <g class="blade" style="animation-delay:-2.03s"><text x="515" y="398" class="a3">|</text><text x="515" y="420" class="a3">|</text><text x="515" y="442" class="a3">\</text><text x="515" y="464" class="a3">|</text><text x="515" y="486" class="a3">/</text></g>
  <g class="blade" style="animation-delay:-2.10s"><text x="524" y="398" class="a3">\</text><text x="524" y="420" class="a3">|</text><text x="524" y="442" class="a3">|</text><text x="524" y="464" class="b">|</text><text x="524" y="486" class="a3">\</text><text x="524" y="508" class="a3">/</text></g>
  <g class="blade" style="animation-delay:-2.17s"><text x="533" y="398" class="a3">|</text><text x="533" y="420" class="a3">\</text><text x="533" y="442" class="a3">/</text><text x="533" y="464" class="a3">/</text><text x="533" y="486" class="a3">\</text></g>
  <g class="blade" style="animation-delay:-2.24s"><text x="542" y="200" class="a1">|</text><text x="542" y="398" class="a3">|</text><text x="542" y="420" class="a3">\</text><text x="542" y="442" class="a3">|</text><text x="542" y="464" class="a3">|</text><text x="542" y="486" class="b">|</text></g>
  <g class="blade" style="animation-delay:-2.31s"><text x="551" y="398" class="a3">|</text><text x="551" y="442" class="a3">|</text><text x="551" y="464" class="a3">/</text><text x="551" y="486" class="a3">/</text><text x="551" y="508" class="a3">\</text></g>
  <g class="blade" style="animation-delay:-2.38s"><text x="560" y="200" class="a1">|</text><text x="560" y="420" class="a3">\</text><text x="560" y="442" class="a3">|</text><text x="560" y="464" class="a3">|</text><text x="560" y="486" class="a3">|</text><text x="560" y="508" class="a3">/</text></g>
  <g class="blade" style="animation-delay:-2.45s"><text x="569" y="442" class="a3">\</text><text x="569" y="464" class="a3">|</text><text x="569" y="508" class="a3">/</text></g>
  <g class="blade" style="animation-delay:-2.52s"><text x="578" y="200" class="a1">|</text><text x="578" y="398" class="a3">|</text><text x="578" y="420" class="a3">\</text><text x="578" y="442" class="a3">|</text><text x="578" y="464" class="a3">|</text><text x="578" y="486" class="a3">|</text></g>
  <g class="blade" style="animation-delay:-2.59s"><text x="587" y="420" class="a3">\</text><text x="587" y="442" class="a3">|</text><text x="587" y="464" class="a3">|</text><text x="587" y="486" class="a3">|</text><text x="587" y="508" class="a3">|</text></g>
  <g class="blade" style="animation-delay:-2.66s"><text x="596" y="398" class="a3">|</text><text x="596" y="420" class="a3">|</text><text x="596" y="442" class="a3">|</text><text x="596" y="464" class="a3">|</text><text x="596" y="486" class="a3">\</text><text x="596" y="112" class="a1">|</text><text x="596" y="134" class="a1">|</text></g>
  <g class="blade" style="animation-delay:-2.73s"><text x="605" y="398" class="a3">/</text><text x="605" y="420" class="a3">/</text><text x="605" y="442" class="a3">|</text><text x="605" y="464" class="a3">|</text><text x="605" y="486" class="a3">|</text></g>
  <g class="blade" style="animation-delay:-2.80s"><text x="614" y="398" class="a3">\</text><text x="614" y="420" class="a3">/</text><text x="614" y="442" class="a3">|</text><text x="614" y="464" class="a3">|</text><text x="614" y="486" class="a3">/</text><text x="614" y="508" class="a3">\</text></g>
  <g class="blade" style="animation-delay:-2.87s"><text x="623" y="200" class="a1">\</text><text x="623" y="398" class="a3">/</text><text x="623" y="420" class="a3">|</text><text x="623" y="442" class="a3">/</text><text x="623" y="464" class="a3">|</text><text x="623" y="486" class="a3">|</text><text x="623" y="508" class="a3">\</text><text x="623" y="178" class="a1">|</text></g>
  <g class="blade" style="animation-delay:-2.94s"><text x="632" y="178" class="a1">|</text><text x="632" y="420" class="a3">|</text><text x="632" y="442" class="a3">|</text><text x="632" y="464" class="a3">/</text><text x="632" y="508" class="a3">/</text></g>
  <g class="blade" style="animation-delay:-3.01s"><text x="641" y="398" class="a3">/</text><text x="641" y="420" class="a3">|</text><text x="641" y="442" class="a3">\</text><text x="641" y="464" class="a3">|</text><text x="641" y="486" class="a3">/</text><text x="641" y="90" class="a1">|</text><text x="641" y="112" class="a1">|</text><text x="641" y="134" class="a1">|</text><text x="641" y="156" class="a1">|</text></g>
  <g class="blade" style="animation-delay:-3.08s"><text x="650" y="200" class="a1">\</text><text x="650" y="398" class="b">\</text><text x="650" y="420" class="a3">|</text><text x="650" y="442" class="a3">/</text><text x="650" y="486" class="a3">|</text><text x="650" y="508" class="b">/</text></g>
  <g class="blade" style="animation-delay:-3.15s"><text x="659" y="398" class="a3">|</text><text x="659" y="420" class="a3">|</text><text x="659" y="442" class="a3">\</text><text x="659" y="464" class="a3">|</text><text x="659" y="486" class="a3">\</text><text x="659" y="508" class="a3">/</text></g>
  <g class="blade" style="animation-delay:-3.22s"><text x="668" y="398" class="a3">|</text><text x="668" y="420" class="a3">\</text><text x="668" y="442" class="a3">\</text><text x="668" y="464" class="b">|</text><text x="668" y="486" class="a3">|</text></g>
  <g class="blade" style="animation-delay:-3.29s"><text x="677" y="222" class="a1">|</text><text x="677" y="398" class="a3">/</text><text x="677" y="420" class="a3">|</text><text x="677" y="442" class="a3">|</text><text x="677" y="464" class="a3">/</text><text x="677" y="486" class="a3">/</text><text x="677" y="508" class="a3">|</text></g>
  <g class="blade" style="animation-delay:-3.36s"><text x="686" y="398" class="a3">/</text><text x="686" y="420" class="a3">\</text><text x="686" y="442" class="a3">|</text><text x="686" y="464" class="a3">|</text><text x="686" y="486" class="a3">/</text><text x="686" y="508" class="a3">|</text></g>
  <g class="blade" style="animation-delay:-3.43s"><text x="695" y="200" class="a1">\</text><text x="695" y="420" class="a3">|</text><text x="695" y="442" class="a3">\</text><text x="695" y="464" class="a3">/</text><text x="695" y="486" class="a3">|</text><text x="695" y="508" class="a3">/</text></g>
  <g class="blade" style="animation-delay:-3.50s"><text x="704" y="200" class="a1">|</text><text x="704" y="398" class="a3">\</text><text x="704" y="420" class="a3">/</text><text x="704" y="464" class="a3">|</text><text x="704" y="486" class="a3">/</text></g>
  <g class="blade" style="animation-delay:-3.57s"><text x="713" y="420" class="a3">\</text><text x="713" y="442" class="a3">\</text><text x="713" y="508" class="a3">\</text></g>
  <g class="blade" style="animation-delay:-3.64s"><text x="722" y="222" class="a1">|</text><text x="722" y="398" class="a3">/</text><text x="722" y="420" class="a3">|</text><text x="722" y="442" class="b">|</text></g>
  <g class="blade" style="animation-delay:-3.71s"><text x="731" y="420" class="a3">|</text><text x="731" y="442" class="a3">|</text><text x="731" y="464" class="a3">|</text><text x="731" y="508" class="a3">/</text></g>
  <g class="blade" style="animation-delay:-3.78s"><text x="740" y="200" class="a1">\</text><text x="740" y="398" class="a3">|</text><text x="740" y="442" class="a3">|</text><text x="740" y="464" class="a3">/</text><text x="740" y="508" class="a3">|</text></g>
  <g class="blade" style="animation-delay:-3.85s"><text x="749" y="398" class="a3">|</text><text x="749" y="442" class="a3">|</text><text x="749" y="486" class="a3">\</text></g>
  <g class="blade" style="animation-delay:-3.92s"><text x="758" y="156" class="a1">\</text><text x="758" y="178" class="a1">|</text><text x="758" y="398" class="a3">/</text><text x="758" y="508" class="a3">|</text></g>
  <g class="blade" style="animation-delay:-3.99s"><text x="767" y="442" class="a3">|</text><text x="767" y="464" class="b">/</text><text x="767" y="486" class="a3">|</text><text x="767" y="508" class="a3">|</text></g>
  <g class="blade" style="animation-delay:-4.06s"><text x="776" y="200" class="a1">\</text><text x="776" y="222" class="a1">|</text><text x="776" y="420" class="a3">/</text><text x="776" y="486" class="a3">|</text><text x="776" y="508" class="a2">|</text></g>
  <g class="blade" style="animation-delay:-4.13s"><text x="785" y="398" class="a3">\</text><text x="785" y="486" class="a3">/</text><text x="785" y="508" class="a2">\</text></g>
  <g class="blade" style="animation-delay:-4.20s"><text x="794" y="398" class="a3">\</text><text x="794" y="464" class="a3">|</text><text x="794" y="486" class="a3">|</text><text x="794" y="508" class="a2">/</text></g>
  <g class="blade" style="animation-delay:-4.27s"><text x="803" y="398" class="a2">\</text><text x="803" y="420" class="a3">|</text><text x="803" y="442" class="a3">|</text><text x="803" y="464" class="a3">\</text><text x="803" y="486" class="a2">/</text><text x="803" y="508" class="a2">\</text></g>
  <g class="blade" style="animation-delay:-4.34s"><text x="812" y="398" class="a2">|</text><text x="812" y="442" class="a3">/</text><text x="812" y="486" class="a2">\</text><text x="812" y="508" class="a2">|</text></g>
  <g class="blade" style="animation-delay:-4.41s"><text x="821" y="90" class="a1">|</text><text x="821" y="398" class="b">\</text><text x="821" y="486" class="a2">/</text><text x="821" y="112" class="a1">|</text><text x="821" y="134" class="a1">|</text><text x="821" y="156" class="a1">|</text></g>
  <g class="blade" style="animation-delay:-4.48s"><text x="830" y="310" class="a1">|</text><text x="830" y="354" class="a2">|</text><text x="830" y="442" class="a2">/</text><text x="830" y="464" class="a2">/</text><text x="830" y="508" class="a2">\</text></g>
  <g class="blade" style="animation-delay:-4.55s"><text x="839" y="376" class="a2">/</text><text x="839" y="442" class="a2">\</text><text x="839" y="464" class="a2">|</text><text x="839" y="486" class="a2">|</text><text x="839" y="508" class="a2">|</text></g>
  <g class="blade" style="animation-delay:-4.62s"><text x="848" y="310" class="a1">/</text><text x="848" y="420" class="a2">/</text><text x="848" y="442" class="a2">\</text><text x="848" y="464" class="a2">\</text><text x="848" y="508" class="a2">|</text></g>
  <g class="blade" style="animation-delay:-4.69s"><text x="857" y="266" class="a1">|</text><text x="857" y="310" class="a1">/</text><text x="857" y="354" class="a2">|</text><text x="857" y="420" class="a2">|</text><text x="857" y="464" class="a2">/</text><text x="857" y="486" class="a2">|</text><text x="857" y="508" class="a2">|</text></g>
  <g class="blade" style="animation-delay:-4.76s"><text x="866" y="376" class="b">/</text><text x="866" y="420" class="a2">/</text></g>
  <g class="blade" style="animation-delay:-4.83s"><text x="875" y="332" class="a1">/</text><text x="875" y="354" class="a1">|</text><text x="875" y="420" class="a2">/</text><text x="875" y="486" class="a2">\</text></g>
  <g class="blade" style="animation-delay:-4.90s"><text x="884" y="244" class="a1">\</text><text x="884" y="288" class="a1">|</text><text x="884" y="332" class="a1">|</text><text x="884" y="376" class="a2">/</text><text x="884" y="398" class="a2">|</text><text x="884" y="464" class="a2">\</text></g>
  <g class="blade" style="animation-delay:-4.97s"><text x="893" y="310" class="a1">/</text><text x="893" y="354" class="a1">/</text><text x="893" y="376" class="a2">|</text><text x="893" y="398" class="a2">|</text><text x="893" y="420" class="a2">/</text><text x="893" y="486" class="a2">|</text></g>
  <g class="blade" style="animation-delay:-5.04s"><text x="902" y="200" class="a1">|</text><text x="902" y="376" class="a1">/</text></g>
  <g class="blade" style="animation-delay:-5.11s"><text x="911" y="464" class="a2">|</text><text x="911" y="486" class="a2">\</text></g>
  <g class="blade" style="animation-delay:-5.18s"><text x="920" y="178" class="a1">/</text><text x="920" y="376" class="a1">\</text><text x="920" y="464" class="a2">|</text><text x="920" y="508" class="a1">|</text></g>
  <g class="blade" style="animation-delay:-5.25s"><text x="929" y="288" class="a1">/</text><text x="929" y="332" class="a1">\</text><text x="929" y="376" class="a1">/</text><text x="929" y="420" class="b">|</text><text x="929" y="442" class="b">\</text></g>
  <g class="blade" style="animation-delay:-5.32s"><text x="938" y="266" class="a1">|</text><text x="938" y="354" class="a1">|</text><text x="938" y="464" class="a1">\</text></g>
  <g class="blade" style="animation-delay:-5.39s"><text x="947" y="332" class="a1">|</text><text x="947" y="90" class="a1">|</text><text x="947" y="112" class="a1">|</text><text x="947" y="134" class="a1">|</text><text x="947" y="156" class="a1">|</text></g>
  <g class="blade" style="animation-delay:-5.46s"><text x="956" y="90" class="a1">/</text><text x="956" y="486" class="b">/</text></g>
  <g class="blade" style="animation-delay:-5.53s"><text x="965" y="288" class="a1">|</text><text x="965" y="332" class="a1">|</text><text x="965" y="398" class="a1">/</text><text x="965" y="420" class="a1">|</text></g>
  </g>
  <text x="614" y="266" text-anchor="middle" font-family="ui-monospace, 'SFMono-Regular', 'Cascadia Code', 'JetBrains Mono', Consolas, 'Liberation Mono', monospace" font-size="28" font-weight="700" fill="#1B2231" textLength="238" lengthAdjust="spacing" class="scramble" style="animation-delay:0.70s">@/\&gt;!@ $%/*@%%</text><text x="614" y="266" text-anchor="middle" font-family="ui-monospace, 'SFMono-Regular', 'Cascadia Code', 'JetBrains Mono', Consolas, 'Liberation Mono', monospace" font-size="28" font-weight="700" fill="#1B2231" textLength="238" lengthAdjust="spacing" class="scramble" style="animation-delay:0.77s">Fr&gt;&gt;/| /&gt;%!\?&amp;</text><text x="614" y="266" text-anchor="middle" font-family="ui-monospace, 'SFMono-Regular', 'Cascadia Code', 'JetBrains Mono', Consolas, 'Liberation Mono', monospace" font-size="28" font-weight="700" fill="#1B2231" textLength="238" lengthAdjust="spacing" class="scramble" style="animation-delay:0.84s">Fran!% /!/?&gt;&gt;\</text><text x="614" y="266" text-anchor="middle" font-family="ui-monospace, 'SFMono-Regular', 'Cascadia Code', 'JetBrains Mono', Consolas, 'Liberation Mono', monospace" font-size="28" font-weight="700" fill="#1B2231" textLength="238" lengthAdjust="spacing" class="scramble" style="animation-delay:0.91s">Franc| \|?//$/</text><text x="614" y="266" text-anchor="middle" font-family="ui-monospace, 'SFMono-Regular', 'Cascadia Code', 'JetBrains Mono', Consolas, 'Liberation Mono', monospace" font-size="28" font-weight="700" fill="#1B2231" textLength="238" lengthAdjust="spacing" class="scramble" style="animation-delay:0.98s">Franco \\|@%\&amp;</text><text x="614" y="266" text-anchor="middle" font-family="ui-monospace, 'SFMono-Regular', 'Cascadia Code', 'JetBrains Mono', Consolas, 'Liberation Mono', monospace" font-size="28" font-weight="700" fill="#1B2231" textLength="238" lengthAdjust="spacing" class="scramble" style="animation-delay:1.05s">Franco Ti%@|?&lt;</text><text x="614" y="266" text-anchor="middle" font-family="ui-monospace, 'SFMono-Regular', 'Cascadia Code', 'JetBrains Mono', Consolas, 'Liberation Mono', monospace" font-size="28" font-weight="700" fill="#1B2231" textLength="238" lengthAdjust="spacing" class="scramble" style="animation-delay:1.12s">Franco Till&gt;||</text><text x="614" y="266" text-anchor="middle" font-family="ui-monospace, 'SFMono-Regular', 'Cascadia Code', 'JetBrains Mono', Consolas, 'Liberation Mono', monospace" font-size="28" font-weight="700" fill="#1B2231" textLength="238" lengthAdjust="spacing" class="scramble" style="animation-delay:1.19s">Franco Tilla?|</text>
  <g class="glitch-hide" style="animation-delay:6s"><g class="show" style="animation-delay:1.26s"><text x="614" y="266" text-anchor="middle" font-family="ui-monospace, 'SFMono-Regular', 'Cascadia Code', 'JetBrains Mono', Consolas, 'Liberation Mono', monospace" font-size="28" font-weight="700" fill="#1B2231" textLength="238" lengthAdjust="spacing">Franco Tillard</text></g></g>
  <text x="614" y="266" text-anchor="middle" font-family="ui-monospace, 'SFMono-Regular', 'Cascadia Code', 'JetBrains Mono', Consolas, 'Liberation Mono', monospace" font-size="28" font-weight="700" fill="#1B2231" textLength="238" lengthAdjust="spacing" class="glitch" style="animation-delay:6s">F$anc* Tillard</text>
  <text x="614" y="296" text-anchor="middle" font-family="ui-monospace, 'SFMono-Regular', 'Cascadia Code', 'JetBrains Mono', Consolas, 'Liberation Mono', monospace" font-size="14" fill="#575D6A" textLength="403.20000000000005" lengthAdjust="spacing" class="scramble" style="animation-delay:1.00s">#$|?!*%@|?@@&amp; |?&lt;&gt;|&amp;&gt;&lt;?\ #* %@ ?&amp;?&lt; &gt; ?!&lt;&amp;!&lt;@@&amp;@</text><text x="614" y="296" text-anchor="middle" font-family="ui-monospace, 'SFMono-Regular', 'Cascadia Code', 'JetBrains Mono', Consolas, 'Liberation Mono', monospace" font-size="14" fill="#575D6A" textLength="403.20000000000005" lengthAdjust="spacing" class="scramble" style="animation-delay:1.07s">desarr$&lt;#?$&amp;$ #\&gt;/&gt;%|*%@ *&lt; /! $/*? &amp; ?%|*@!#*\&amp;</text><text x="614" y="296" text-anchor="middle" font-family="ui-monospace, 'SFMono-Regular', 'Cascadia Code', 'JetBrains Mono', Consolas, 'Liberation Mono', monospace" font-size="14" fill="#575D6A" textLength="403.20000000000005" lengthAdjust="spacing" class="scramble" style="animation-delay:1.14s">desarrollado% !&gt;$$&gt;@?!?? &lt;? &gt;@ &amp;\!! % #$*#@**%#/</text><text x="614" y="296" text-anchor="middle" font-family="ui-monospace, 'SFMono-Regular', 'Cascadia Code', 'JetBrains Mono', Consolas, 'Liberation Mono', monospace" font-size="14" fill="#575D6A" textLength="403.20000000000005" lengthAdjust="spacing" class="scramble" style="animation-delay:1.21s">desarrollador full&lt;|/!*| $* &amp;% #\$&lt; $ @&gt;\&gt;@@?!*%</text><text x="614" y="296" text-anchor="middle" font-family="ui-monospace, 'SFMono-Regular', 'Cascadia Code', 'JetBrains Mono', Consolas, 'Liberation Mono', monospace" font-size="14" fill="#575D6A" textLength="403.20000000000005" lengthAdjust="spacing" class="scramble" style="animation-delay:1.28s">desarrollador fullstack, &amp;@ &lt;$ |/@@ ? &gt;&lt;$&gt;%*$$&amp;&lt;</text><text x="614" y="296" text-anchor="middle" font-family="ui-monospace, 'SFMono-Regular', 'Cascadia Code', 'JetBrains Mono', Consolas, 'Liberation Mono', monospace" font-size="14" fill="#575D6A" textLength="403.20000000000005" lengthAdjust="spacing" class="scramble" style="animation-delay:1.35s">desarrollador fullstack, de la ?$|&lt; | \\|@!&lt;\?|$</text><text x="614" y="296" text-anchor="middle" font-family="ui-monospace, 'SFMono-Regular', 'Cascadia Code', 'JetBrains Mono', Consolas, 'Liberation Mono', monospace" font-size="14" fill="#575D6A" textLength="403.20000000000005" lengthAdjust="spacing" class="scramble" style="animation-delay:1.42s">desarrollador fullstack, de la idea % !??|$$*%@*</text><text x="614" y="296" text-anchor="middle" font-family="ui-monospace, 'SFMono-Regular', 'Cascadia Code', 'JetBrains Mono', Consolas, 'Liberation Mono', monospace" font-size="14" fill="#575D6A" textLength="403.20000000000005" lengthAdjust="spacing" class="scramble" style="animation-delay:1.49s">desarrollador fullstack, de la idea a prod?|$*@&lt;</text>
  <g class="glitch-hide" style="animation-delay:9.5s"><g class="show" style="animation-delay:1.56s"><text x="614" y="296" text-anchor="middle" font-family="ui-monospace, 'SFMono-Regular', 'Cascadia Code', 'JetBrains Mono', Consolas, 'Liberation Mono', monospace" font-size="14" fill="#575D6A" textLength="403.20000000000005" lengthAdjust="spacing">desarrollador fullstack, de la idea a producción</text></g></g>
  <text x="614" y="296" text-anchor="middle" font-family="ui-monospace, 'SFMono-Regular', 'Cascadia Code', 'JetBrains Mono', Consolas, 'Liberation Mono', monospace" font-size="14" fill="#575D6A" textLength="403.20000000000005" lengthAdjust="spacing" class="glitch" style="animation-delay:9.5s">desarro&lt;lador fullstack% de &gt;a idea a prod@|ción</text>
  <g class="show" style="animation-delay:1.71s"><rect x="548" y="311" width="132" height="28" rx="6" fill="none" stroke="#394EEF"/><text x="614" y="330" text-anchor="middle" font-family="ui-monospace, 'SFMono-Regular', 'Cascadia Code', 'JetBrains Mono', Consolas, 'Liberation Mono', monospace" font-size="14" font-weight="600" fill="#394EEF">Explorar ↗</text></g>
  <path d="M0.5 588 H999.5 V605.5 A12 12 0 0 1 987.5 617.5 H12.5 A12 12 0 0 1 0.5 605.5 Z" fill="#F3F3F1"/>
  <line x1="0.5" y1="588" x2="999.5" y2="588" stroke="#D5D8DD"/>
  <rect x="12" y="594" width="72" height="18" rx="3" fill="#394EEF"/>
  <text x="48" y="607" text-anchor="middle" font-family="ui-monospace, 'SFMono-Regular', 'Cascadia Code', 'JetBrains Mono', Consolas, 'Liberation Mono', monospace" font-size="11" font-weight="700" fill="#FFFFFF">NORMAL</text>
  <text x="98" y="607" font-family="ui-monospace, 'SFMono-Regular', 'Cascadia Code', 'JetBrains Mono', Consolas, 'Liberation Mono', monospace" font-size="12" fill="#1B2231">README.es.md</text>
  <text x="984" y="607" text-anchor="end" font-family="ui-monospace, 'SFMono-Regular', 'Cascadia Code', 'JetBrains Mono', Consolas, 'Liberation Mono', monospace" font-size="12" fill="#575D6A">utf-8   ln 1, col 1</text>
</svg>
